#!OML:ASF E:\acrobat2\Project_11_07_03\Capture day 1\Session 1\Acrobat.ASF
:FULLY-SPECIFIED
:DEGREES
123
root 8.36931 17.9662 -27.6959 9.59747 -87.597 -2.4152
lowerback -7.41734 0.951789 1.64018
upperback -5.56625 0.996563 -0.848293
thorax -1.54772 0.362922 -1.73256
lowerneck -1.2508 -1.7727 -0.281955
upperneck -0.508178 -2.36755 2.19805
head 0.0811899 -1.18323 0.701242
rclavicle 1.08586e-014 -2.98177e-015
rhumerus -7.30433 -23.1002 -0.890463
rradius 20.8886
rwrist 15.6714
rhand -6.43034 -46.4237
rfingers 7.12502
rthumb 19.4186 -75.474
lclavicle 1.08586e-014 -2.98177e-015
lhumerus 1.07202 11.6839 -1.64808
lradius 21.0291
lwrist 8.33629
lhand -12.4168 -6.42824
lfingers 7.12502
lthumb 13.6553 23.1038
rfemur 6.97354 19.7396 12.1648
rtibia -3.79884
rfoot -30.4212 -31.5087
rtoes 6.27438
lfemur 4.99657 -5.81458 -5.85285
ltibia -2.21915
lfoot -25.3221 5.62172
ltoes 35.9196
124
root 8.36549 17.9659 -27.6956 7.68495 -87.6407 -0.505565
lowerback -7.45024 0.96521 1.59515
upperback -5.56252 1.01604 -0.856896
thorax -1.5254 0.373933 -1.71452
lowerneck -1.18164 -1.76518 -0.370445
upperneck -0.560786 -2.35541 2.27679
head 0.0559452 -1.17773 0.74114
rclavicle 5.11871e-015 -9.93923e-016
rhumerus -7.31281 -23.9498 -0.921166
rradius 20.9812
rwrist 16.6383
rhand -6.2744 -46.4462
rfingers 7.12502
rthumb 19.5686 -75.4814
lclavicle 5.11871e-015 -9.93923e-016
lhumerus 1.02898 11.2951 -1.68214
lradius 21.0721
lwrist 8.64413
lhand -12.3893 -6.4572
lfingers 7.12502
lthumb 13.6818 23.0731
rfemur 6.99551 19.8318 12.0768
rtibia -3.81329
rfoot -30.4122 -31.5749
rtoes 6.53204
lfemur 5.1653 -6.54741 -6.13135
ltibia -2.45783
lfoot -26.0962 5.7937
ltoes 36.4499
125
root 8.36026 17.9657 -27.6968 3.73003 -87.6865 3.46786
lowerback -7.5168 0.950938 1.42511
upperback -5.56893 1.00407 -0.876295
thorax -1.49806 0.372017 -1.63898
lowerneck -1.06324 -1.7375 -0.480224
upperneck -0.636305 -2.31608 2.45385
head 0.0167573 -1.15924 0.815726
rclavicle -2.45996e-015 5.96354e-016
rhumerus -7.17767 -24.7645 -1.02533
rradius 20.8914
rwrist 17.5774
rhand -6.31318 -46.3061
rfingers 7.12502
rthumb 19.5313 -75.3451
lclavicle -2.45996e-015 5.96354e-016
lhumerus 0.895816 10.7868 -1.78227
lradius 21.1209
lwrist 8.94357
lhand -12.2601 -6.31158
lfingers 7.12502
lthumb 13.8064 23.2103
rfemur 7.01289 19.9315 11.8891
rtibia -3.8479
rfoot -30.6046 -31.5489
rtoes 6.95309
lfemur 5.29622 -7.13969 -6.49466
ltibia -2.6615
lfoot -26.7494 5.97786
ltoes 37.052
126
root 8.35581 17.9647 -27.6988 -0.241109 -87.7355 7.45636
lowerback -7.58294 0.975506 1.26428
upperback -5.56904 1.04373 -0.916472
thorax -1.46204 0.395583 -1.58678
lowerneck -1.05436 -1.74547 -0.509278
upperneck -0.626962 -2.32722 2.60744
head 0.0206588 -1.16497 0.868024
rclavicle 1.2424e-015 -2.38542e-015
rhumerus -7.10451 -24.9753 -1.0245
rradius 20.6655
rwrist 17.8686
rhand -6.54342 -46.1563
rfingers 7.12502
rthumb 19.3099 -75.2175
lclavicle 1.2424e-015 -2.38542e-015
lhumerus 0.893805 10.397 -1.81897
lradius 21.105
lwrist 9.13782
lhand -11.9901 -6.24733
lfingers 7.12502
lthumb 14.0666 23.2566
rfemur 7.00146 19.987 11.6881
rtibia -3.85426
rfoot -30.8719 -31.371
rtoes 7.67906
lfemur 5.26959 -6.85907 -6.66202
ltibia -2.60561
lfoot -26.4873 6.0038
ltoes 37.0294
127
root 8.35375 17.964 -27.6992 -0.402006 -87.7738 7.63148
lowerback -7.61395 1.01518 1.32635
upperback -5.5783 1.09161 -0.957616
thorax -1.45105 0.416797 -1.66069
lowerneck -1.06531 -1.76636 -0.472322
upperneck -0.573952 -2.3572 2.69543
head 0.0397648 -1.17973 0.888512
rclavicle -8.32411e-015 1.98785e-016
rhumerus -7.10451 -24.3881 -0.96463
rradius 20.476
rwrist 17.3756
rhand -6.691 -46.194
rfingers 7.12502
rthumb 19.168 -75.2694
lclavicle -8.32411e-015 1.98785e-016
lhumerus 0.996319 10.2081 -1.85764
lradius 21.0502
lwrist 9.24058
lhand -11.6887 -6.25155
lfingers 7.12502
lthumb 14.357 23.232
rfemur 6.9759 20.0924 11.6818
rtibia -3.8439
rfoot -31.0124 -31.3478
rtoes 8.2876
lfemur 5.24945 -6.80155 -6.64965
ltibia -2.5634
lfoot -26.4865 5.88351
ltoes 37.4138
128
root 8.35197 17.9645 -27.7002 1.47948 -87.7984 5.77946
lowerback -7.65291 1.02929 1.44248
upperback -5.59349 1.10235 -0.942554
thorax -1.44328 0.4187 -1.70925
lowerneck -1.05864 -1.79668 -0.56932
upperneck -0.431648 -2.39973 2.80232
head 0.0853606 -1.19962 0.936995
rclavicle 1.05604e-014 -5.96354e-016
rhumerus -7.13115 -23.6054 -0.896135
rradius 20.5495
rwrist 16.6667
rhand -6.65447 -46.3093
rfingers 7.12502
rthumb 19.2031 -75.3813
lclavicle 1.05604e-014 -5.96354e-016
lhumerus 1.00354 10.161 -1.83496
lradius 21.0232
lwrist 9.2671
lhand -11.5014 -6.13983
lfingers 7.12502
lthumb 14.5375 23.3308
rfemur 6.95388 20.2423 11.7964
rtibia -3.84921
rfoot -31.011 -31.5377
rtoes 8.1145
lfemur 5.23706 -6.86827 -6.54665
ltibia -2.5734
lfoot -26.6425 5.77201
ltoes 37.8022
129
root 8.34892 17.9654 -27.7011 2.77255 -87.8137 4.51899
lowerback -7.72403 1.04166 1.49063
upperback -5.60101 1.11441 -0.884584
thorax -1.41165 0.424212 -1.67476
lowerneck -1.16036 -1.85583 -0.755197
upperneck -0.115881 -2.48329 2.89666
head 0.203746 -1.23754 0.994543
rclavicle -1.69961e-014 -4.96962e-015
rhumerus -7.02307 -22.6317 -0.751421
rradius 20.3742
rwrist 15.7078
rhand -6.69896 -46.2836
rfingers 7.12502
rthumb 19.1603 -75.3597
lclavicle -1.69961e-014 -4.96962e-015
lhumerus 0.925887 10.141 -1.71633
lradius 21.0434
lwrist 9.17774
lhand -11.3568 -5.91446
lfingers 7.12502
lthumb 14.6768 23.5461
rfemur 6.93638 20.3017 11.8718
rtibia -3.85051
rfoot -30.9954 -31.6072
rtoes 7.81177
lfemur 5.21703 -6.77749 -6.46573
ltibia -2.57853
lfoot -26.5919 5.79835
ltoes 37.5426
130
root 8.34539 17.9657 -27.7005 3.94753 -87.8154 3.36312
lowerback -7.79644 1.08223 1.56253
upperback -5.60645 1.16244 -0.855999
thorax -1.37477 0.446714 -1.68149
lowerneck -1.23448 -1.92016 -0.852891
upperneck 0.12359 -2.57298 2.92919
head 0.292818 -1.27971 1.01873
rclavicle 4.13721e-015 2.48481e-015
rhumerus -7.03535 -22.0073 -0.602234
rradius 20.1895
rwrist 15.1185
rhand -6.86891 -46.2335
rfingers 7.12502
rthumb 18.9969 -75.3258
lclavicle 4.13721e-015 2.48481e-015
lhumerus 0.99492 10.3078 -1.53306
lradius 21.0253
lwrist 8.87218
lhand -11.1487 -5.64129
lfingers 7.12502
lthumb 14.8772 23.8045
rfemur 6.9329 20.2751 11.9198
rtibia -3.85567
rfoot -31.028 -31.569
rtoes 7.86932
lfemur 5.22033 -6.73681 -6.41085
ltibia -2.59778
lfoot -26.523 5.79697
ltoes 37.3849
131
root 8.34165 17.9661 -27.7011 4.42393 -87.7948 2.88501
lowerback -7.84229 1.11279 1.61464
upperback -5.60595 1.19899 -0.859191
thorax -1.34653 0.463674 -1.71091
lowerneck -1.26409 -1.92284 -0.917127
upperneck 0.203148 -2.57848 3.03144
head 0.324782 -1.28143 1.06082
rclavicle -6.01324e-015 2.18663e-015
rhumerus -7.15458 -22.201 -0.556867
rradius 20.2182
rwrist 15.3639
rhand -7.02025 -46.2895
rfingers 7.12502
rthumb 18.8513 -75.396
lclavicle -6.01324e-015 2.18663e-015
lhumerus 1.12298 10.4903 -1.38752
lradius 20.9752
lwrist 8.60426
lhand -10.8897 -5.39475
lfingers 7.12502
lthumb 15.1267 24.0325
rfemur 6.95987 20.2323 11.9482
rtibia -3.86942
rfoot -31.0806 -31.5276
rtoes 7.95783
lfemur 5.22877 -6.67851 -6.37704
ltibia -2.59891
lfoot -26.383 5.68793
ltoes 37.6183
132
root 8.34075 17.9664 -27.7043 4.57496 -87.7248 2.7422
lowerback -7.85489 1.09496 1.63422
upperback -5.61394 1.17351 -0.861445
thorax -1.34858 0.450058 -1.72581
lowerneck -1.32871 -1.86985 -0.940674
upperneck 0.259178 -2.51029 3.15034
head 0.35351 -1.24619 1.1017
rclavicle -7.11898e-015 7.05686e-015
rhumerus -7.22316 -22.7895 -0.614911
rradius 20.3456
rwrist 15.9796
rhand -7.08318 -46.3777
rfingers 7.12502
rthumb 18.7908 -75.4901
lclavicle -7.11898e-015 7.05686e-015
lhumerus 1.10793 10.2598 -1.41404
lradius 20.9943
lwrist 8.72619
lhand -10.7352 -5.22501
lfingers 7.12502
lthumb 15.2756 24.1909
rfemur 6.97076 20.1522 11.9918
rtibia -3.85411
rfoot -30.9283 -31.6381
rtoes 7.21178
lfemur 5.26887 -7.08267 -6.43009
ltibia -2.69684
lfoot -26.7056 5.69714
ltoes 38.0613
133
root 8.3414 17.966 -27.7063 5.24641 -87.6601 2.07696
lowerback -7.84405 1.06596 1.68181
upperback -5.62636 1.13198 -0.851111
thorax -1.36859 0.427637 -1.74491
lowerneck -1.39233 -1.82939 -0.813587
upperneck 0.327388 -2.45941 3.07365
head 0.380878 -1.21986 1.05577
rclavicle -1.01877e-014 -1.39149e-015
rhumerus -7.29705 -23.6048 -0.727941
rradius 20.6026
rwrist 16.8375
rhand -6.97882 -46.438
rfingers 7.12502
rthumb 18.8912 -75.5406
lclavicle -1.01877e-014 -1.39149e-015
lhumerus 1.04649 10.1008 -1.45696
lradius 20.991
lwrist 8.69738
lhand -10.5045 -5.23591
lfingers 7.12502
lthumb 15.4977 24.163
rfemur 6.94914 19.9639 12.0191
rtibia -3.82244
rfoot -30.6545 -31.6691
rtoes 6.307
lfemur 5.31499 -7.56927 -6.47564
ltibia -2.80216
lfoot -27.2081 5.71447
ltoes 38.5878
134
root 8.33762 17.9662 -27.7045 5.44833 -87.6606 1.84998
lowerback -7.85654 1.06758 1.75925
upperback -5.61839 1.12951 -0.868575
thorax -1.35194 0.424296 -1.80633
lowerneck -1.44056 -1.81227 -0.651362
upperneck 0.388934 -2.4401 2.97816
head 0.403539 -1.20954 0.998083
rclavicle -5.61567e-015 -1.49089e-015
rhumerus -7.33596 -24.2353 -0.828105
rradius 20.7751
rwrist 17.5412
rhand -6.78273 -46.3716
rfingers 7.12502
rthumb 19.0798 -75.4557
lclavicle -5.61567e-015 -1.49089e-015
lhumerus 1.04843 10.0393 -1.50608
lradius 20.9495
lwrist 8.62511
lhand -10.0594 -5.25337
lfingers 7.12502
lthumb 15.9265 24.1118
rfemur 6.9617 19.8289 11.9717
rtibia -3.82441
rfoot -30.6339 -31.4472
rtoes 6.83739
lfemur 5.41475 -7.94717 -6.56019
ltibia -2.90092
lfoot -27.59 5.72101
ltoes 39.0873
